<svg xmlns="http://www.w3.org/2000/svg" width="640" height="320" viewBox="0 0 640 320" font-family="Helvetica,Arial,sans-serif"><rect width="640" height="320" fill="#fff"/><text x="12" y="22" font-size="14" text-anchor="start" fill="#222" font-weight="bold">When each drug is prescribed (&gt;=500 encounters)</text><text x="12" y="39" font-size="10" text-anchor="start" fill="#777">overall 30-day rate 11.39% (eligible encounters)</text><rect x="138" y="55.6" width="389.0" height="16.9" fill="#81b29a"/><text x="132" y="68" font-size="10" text-anchor="end" fill="#333">repaglinide</text><text x="531" y="68" font-size="9" text-anchor="start" fill="#444">13.5%  n=1,518</text><rect x="138" y="79.8" width="357.9" height="16.9" fill="#81b29a"/><text x="132" y="92" font-size="10" text-anchor="end" fill="#333">insulin</text><text x="500" y="92" font-size="9" text-anchor="start" fill="#444">12.4%  n=52,964</text><rect x="138" y="104.0" width="334.5" height="16.9" fill="#81b29a"/><text x="132" y="116" font-size="10" text-anchor="end" fill="#333">nateglinide</text><text x="476" y="116" font-size="9" text-anchor="start" fill="#444">11.6%  n=689</text><rect x="138" y="128.2" width="332.5" height="16.9" fill="#81b29a"/><text x="132" y="141" font-size="10" text-anchor="end" fill="#333">glipizide</text><text x="474" y="141" font-size="9" text-anchor="start" fill="#444">11.5%  n=12,530</text><rect x="138" y="152.4" width="321.8" height="16.9" fill="#81b29a"/><text x="132" y="165" font-size="10" text-anchor="end" fill="#333">glyburide_metformin</text><text x="464" y="165" font-size="9" text-anchor="start" fill="#444">11.2%  n=698</text><rect x="138" y="176.6" width="308.9" height="16.9" fill="#81b29a"/><text x="132" y="189" font-size="10" text-anchor="end" fill="#333">glyburide</text><text x="451" y="189" font-size="9" text-anchor="start" fill="#444">10.7%  n=10,523</text><rect x="138" y="200.8" width="306.6" height="16.9" fill="#81b29a"/><text x="132" y="213" font-size="10" text-anchor="end" fill="#333">pioglitazone</text><text x="448" y="213" font-size="9" text-anchor="start" fill="#444">10.6%  n=7,254</text><rect x="138" y="225.0" width="303.4" height="16.9" fill="#81b29a"/><text x="132" y="238" font-size="10" text-anchor="end" fill="#333">rosiglitazone</text><text x="445" y="238" font-size="9" text-anchor="start" fill="#444">10.5%  n=6,303</text><rect x="138" y="249.2" width="298.2" height="16.9" fill="#81b29a"/><text x="132" y="262" font-size="10" text-anchor="end" fill="#333">glimepiride</text><text x="440" y="262" font-size="9" text-anchor="start" fill="#444">10.3%  n=5,122</text><rect x="138" y="273.4" width="281.5" height="16.9" fill="#81b29a"/><text x="132" y="286" font-size="10" text-anchor="end" fill="#333">metformin</text><text x="423" y="286" font-size="9" text-anchor="start" fill="#444">9.8%  n=19,843</text><line x1="137.8" y1="52" x2="137.8" y2="294" stroke="#999"/></svg>
